# xmcd
#
# Track frame offsets: 
#        150
#        19596
#        44967
#        76409
#
# Disc length: 1202 seconds
#
# Revision: 0
# Processed by: cddbd v1.5.2PL0 Copyright (c) Steve Scherf et al.
# Submitted via: ExactAudioCopy v0.99pb5
#
DISCID=2c04b004
DTITLE=Ανδριαννα Μπαμπαλη - Με Χρειαζεται (Maxi CD Single)
DYEAR=2006
DGENRE=Acid
TTITLE0=(01) Με Χρειαζεται (Fluid Radio Mix)
TTITLE1=(02) Με Χρειαζεται (Fluid Club Mix)
TTITLE2=(03) Με Χρειαζεται (Fluid Dub Mix)
TTITLE3=(04) Με Χρειαζεται (Original Album Mix)
EXTD=
EXTT0=
EXTT1=
EXTT2=
EXTT3=
PLAYORDER=
